<svg xmlns="http://www.w3.org/2000/svg" viewBox="0 0 1920 1080"><defs><style>.cls-1{fill:#43bbff;}.cls-2{fill:#007694;}.cls-3{fill:#c1850e;}.cls-4{fill:#edad0c;}.cls-5{fill:#e06b01;}.cls-6{fill:#ff8819;}.cls-7{fill:#944700;}.cls-8{fill:#199300;}</style></defs><g id="Layer_8" data-name="Layer 8"><rect class="cls-1" x="-0.53" width="1921.07" height="567.34"/></g><g id="træer"><polygon class="cls-2" points="1386.81 638.7 1498.44 623.64 1747.54 728.22 1842.52 951.99 1863.45 1079.93 1317.73 1080.46 1386.81 638.7"/><polygon class="cls-3" points="1151.26 518.99 1223.35 518.99 1311.4 524.46 1442.35 529.98 1604.63 537.07 1734.61 544.15 1854.25 552.04 1643.6 618.12 1383.1 651.5 1243.9 671.03 1151.26 518.99"/><polygon class="cls-4" points="0 464.89 32.86 455.26 79.03 462.49 105.92 466.08 127.38 460.67 409.81 479.61 479.32 478.74 563.03 474.32 618.33 480.53 684.28 474.32 774.59 445.2 831.92 447.07 1084.07 468.09 1126.69 484.1 1185.03 481.25 1225.11 501.54 1308.82 552.27 1347.89 588.29 1347.89 603.83 1374.13 603.83 1470.71 681.1 1515.5 712.06 1537.74 748.21 1582.24 821.43 1518.28 900.22 1522.91 975.3 1416.31 1047.6 1371.81 1080.46 0 1080.46 0 464.89"/><polygon class="cls-4" points="1542.43 698.82 1607.82 729.73 1665.46 786.4 1701.6 815.6 1778.17 839.64 1788.49 861.1 1744.61 932.37 1768.7 994.19 1806.56 1080.46 1921.16 1080.46 1921.16 530.52 1841.83 545.98 1794.51 561.43 1663.74 559.72 1532.11 573.46 1409.08 567.44 1377.25 591.49 1423.51 643.26 1508.89 683.66 1542.43 698.82"/><polygon class="cls-5" points="1097.9 370.12 1097.65 370.27 1056.55 370.27 1069.13 342.27 1081.76 342.27 1097.9 370.12"/><path class="cls-6" d="M1097.65,370.27V492.12h-41.1V370.27Zm-16,90v-19h-8.78v19Zm0-63.29V378h-8.78v19Zm-.17,24.86v-19h-8.78v19Z"/><polygon class="cls-7" points="1081.76 320.31 1081.76 342.27 1069.13 342.27 1069.13 320.31 1073.27 320.31 1077.14 320.31 1081.76 320.31"/><rect class="cls-7" x="1072.88" y="441.31" width="8.78" height="19.01"/><rect class="cls-7" x="1072.88" y="378.02" width="8.78" height="19.01"/><rect class="cls-7" x="1072.71" y="402.86" width="8.78" height="19.02"/><polygon class="cls-5" points="1075.55 272.22 1077.14 320.31 1073.27 320.31 1075.55 272.22"/><path class="cls-6" d="M1056.55,460.31v31.81h-29.29V460.31Zm-11.81,18.14V466.36h-7.25v12.09Z"/><path class="cls-4" d="M1056.55,418.65v41.66h-29.29V418.65Zm-11.81,28.25V431.19h-7.25V446.9Z"/><rect class="cls-5" x="1027.26" y="398.09" width="29.29" height="20.56"/><rect class="cls-4" x="860.74" y="386.13" width="195.8" height="8.25"/><polygon class="cls-5" points="1056.55 373.72 1056.55 386.13 860.74 386.13 860.74 373.72 1021.11 373.72 1033.75 373.72 1056.55 373.72"/><rect class="cls-7" x="1037.49" y="466.36" width="7.25" height="12.09"/><rect class="cls-7" x="1037.49" y="431.19" width="7.25" height="15.71"/><polygon class="cls-7" points="1033.75 352.57 1033.75 373.72 1021.11 373.72 1021.11 352.57 1025.27 352.57 1029.14 352.57 1033.75 352.57"/><polygon class="cls-7" points="1027.43 323.74 1029.14 352.57 1025.27 352.57 1027.43 323.74"/><rect class="cls-4" x="1023.37" y="460.31" width="3.89" height="31.81"/><rect class="cls-4" x="1023.37" y="418.65" width="3.89" height="41.66"/><rect class="cls-4" x="1023.37" y="398.09" width="3.89" height="20.56"/><path class="cls-6" d="M1023.37,460.31v31.81H992.73V460.31Zm-11.94,17.94V466.16h-7.27v12.09Z"/><path class="cls-6" d="M1023.37,418.65v41.66H992.73V418.65Zm-10.2,28.25V431.19h-7.27V446.9Z"/><rect class="cls-5" x="992.73" y="398.09" width="30.64" height="20.56"/><rect class="cls-7" x="1005.9" y="431.19" width="7.27" height="15.71"/><rect class="cls-7" x="1004.16" y="466.16" width="7.27" height="12.09"/><rect class="cls-4" x="988.84" y="460.31" width="3.89" height="31.81"/><rect class="cls-4" x="988.84" y="418.65" width="3.89" height="41.66"/><rect class="cls-4" x="988.84" y="398.09" width="3.89" height="20.56"/><path class="cls-6" d="M988.84,460.31v31.81H958.22V460.31ZM978.11,478V466h-7.27V478Z"/><path class="cls-4" d="M988.84,418.65v41.66H958.22V418.65ZM977.73,446.9V431.19h-7.27V446.9Z"/><rect class="cls-6" x="958.22" y="398.09" width="30.62" height="20.56"/><rect class="cls-7" x="970.84" y="465.96" width="7.27" height="12.07"/><rect class="cls-7" x="970.46" y="431.19" width="7.27" height="15.71"/><rect class="cls-4" x="954.32" y="460.31" width="3.91" height="31.81"/><rect class="cls-4" x="954.32" y="418.65" width="3.91" height="41.66"/><rect class="cls-4" x="954.32" y="398.09" width="3.91" height="20.56"/><path class="cls-6" d="M954.32,460.31v31.81H923.69V460.31Zm-9.54,17.52V465.76h-7.26v12.07Z"/><path class="cls-6" d="M954.32,418.65v41.66H923.69V418.65Zm-9.69,28.25V431.19h-7.27V446.9Z"/><rect class="cls-5" x="923.69" y="398.09" width="30.62" height="20.56"/><rect class="cls-7" x="937.52" y="465.76" width="7.25" height="12.07"/><rect class="cls-7" x="937.36" y="431.19" width="7.27" height="15.71"/><rect class="cls-4" x="919.79" y="460.31" width="3.91" height="31.81"/><rect class="cls-4" x="919.79" y="418.65" width="3.91" height="41.66"/><rect class="cls-4" x="919.79" y="398.09" width="3.91" height="20.56"/><path class="cls-6" d="M919.79,460.31v31.81H889.17V460.31Zm-8.32,17.32V465.54H904.2v12.09Z"/><path class="cls-4" d="M919.79,418.65v41.66H889.17V418.65ZM908.12,446.9V431.19h-7.27V446.9Z"/><rect class="cls-6" x="889.17" y="398.09" width="30.62" height="20.56"/><rect class="cls-7" x="904.2" y="465.54" width="7.27" height="12.09"/><rect class="cls-7" x="900.85" y="431.19" width="7.27" height="15.71"/><rect class="cls-4" x="885.28" y="460.31" width="3.89" height="31.81"/><rect class="cls-4" x="885.28" y="418.65" width="3.89" height="41.66"/><rect class="cls-4" x="885.28" y="398.09" width="3.89" height="20.56"/><path class="cls-4" d="M885.28,460.31v31.81H860.74V460.31Zm-7.14,18.35V466.57h-7.27v12.09Z"/><path class="cls-4" d="M885.28,418.65v41.66H860.74V418.65Zm-7.14,28.25V431.19h-7.27V446.9Z"/><rect class="cls-5" x="860.74" y="398.09" width="24.53" height="20.56"/><polygon class="cls-7" points="919.79 398.09 889.16 398.09 885.28 398.09 860.74 398.09 860.74 394.38 1056.55 394.38 1056.55 398.09 1027.26 398.09 1023.37 398.09 992.73 398.09 988.84 398.09 958.22 398.09 954.32 398.09 923.69 398.09 919.79 398.09"/><rect class="cls-7" x="870.87" y="466.57" width="7.27" height="12.09"/><rect class="cls-7" x="870.87" y="431.19" width="7.27" height="15.71"/><path class="cls-6" d="M860.74,398.09v94H812.28V362.51h48.46v35.58Zm-19.29,62.22v-19h-8.79v19Zm0-38.43v-19h-8.79v19Zm0-24.86V378h-8.79v19Z"/><polygon class="cls-5" points="842.13 334.51 860.74 362.51 812.28 362.51 829.48 334.51 842.13 334.51"/><polygon class="cls-7" points="842.13 312.55 842.13 334.51 829.48 334.51 829.48 312.55 833.64 312.55 837.51 312.55 842.13 312.55"/><rect class="cls-7" x="832.66" y="441.31" width="8.79" height="19.01"/><rect class="cls-7" x="832.66" y="402.86" width="8.79" height="19.02"/><rect class="cls-7" x="832.66" y="378.02" width="8.79" height="19.01"/><polygon class="cls-5" points="835.56 259.03 837.51 312.55 833.64 312.55 835.56 259.03"/><polygon class="cls-7" points="812.28 409.5 812.28 492.12 794 476.14 794 424.46 812.28 409.5"/><polygon class="cls-5" points="812.28 397.02 812.28 409.5 794 424.46 794 397.02 812.28 397.02"/><polygon class="cls-7" points="812.28 380.64 812.28 397.02 794 397.02 780.51 397.02 794.8 374.53 794.8 353.38 798.96 353.38 802.83 353.38 807.45 353.38 807.45 374.53 812.28 380.64"/><polygon class="cls-5" points="801.12 324.57 802.83 353.38 798.96 353.38 801.12 324.57"/><polygon class="cls-7" points="794 424.46 794 476.14 780.51 469.92 780.51 397.02 794 397.02 794 424.46"/><rect class="cls-6" x="417.52" y="498.45" width="29.83" height="23.69"/><rect class="cls-6" x="417.52" y="467.51" width="29.83" height="30.94"/><polygon class="cls-7" points="447.36 467.51 417.52 467.51 417.52 445.59 447.36 467.51"/><rect class="cls-7" x="380.49" y="467.51" width="37.03" height="30.94"/><polygon class="cls-5" points="417.52 467.51 380.49 467.51 380.49 465.21 380.5 465.21 377.77 445.59 417.52 445.59 417.52 467.51"/><polygon class="cls-6" points="371.71 459.09 373.58 445.59 375.67 430.55 377.77 445.59 380.5 465.21 380.49 465.21 370.85 465.21 371.71 459.09"/><polygon class="cls-6" points="380.49 498.45 380.49 522.13 370.85 522.13 370.85 503.83 370.85 465.21 380.49 465.21 380.49 467.51 380.49 498.45"/><polygon class="cls-5" points="373.58 445.59 371.71 459.09 349.46 445.59 373.58 445.59"/><polygon class="cls-6" points="371.71 459.09 370.85 465.21 330.97 465.21 329.79 456.7 329.96 456.68 349.46 445.59 371.71 459.09"/><rect class="cls-5" x="330.97" y="503.83" width="39.88" height="18.31"/><path class="cls-5" d="M370.85,465.21v38.62a36.45,36.45,0,0,0-4-15.19c-1.35-2.6-7.9-15.94-16.47-16-7.58-.09-17.65,15.67-19.39,31.21V465.21Z"/><polygon class="cls-6" points="370.85 503.83 330.97 503.83 347.98 492.98 350.91 491.11 353.83 492.97 370.85 503.83"/><polygon class="cls-5" points="350.91 491.11 347.98 492.98 347.98 492.97 347.86 477.46 353.63 477.46 353.83 492.97 350.91 491.11"/><polygon class="cls-5" points="349.46 445.59 329.96 456.68 329.79 456.7 328.25 445.59 349.46 445.59"/><path class="cls-7" d="M366.83,488.64a36.45,36.45,0,0,1,4,15.19l-17-10.86-.2-15.51h-5.77L348,493h0l-17,10.85c1.74-15.54,11.81-31.3,19.39-31.21C358.93,472.7,365.48,486,366.83,488.64Z"/><polygon class="cls-6" points="329.79 456.7 330.97 465.21 321.33 465.21 324.06 445.59 326.15 430.55 328.25 445.59 329.79 456.7"/><polygon class="cls-6" points="321.33 465.21 330.97 465.21 330.97 503.83 330.97 522.13 321.32 522.13 321.32 498.45 321.32 487.33 321.32 467.51 321.32 465.21 321.33 465.21"/><polygon class="cls-7" points="321.32 487.33 321.32 498.45 305.21 498.45 310.5 487.33 321.32 487.33"/><rect class="cls-4" x="310.5" y="467.51" width="10.82" height="19.82"/><polygon class="cls-5" points="302.44 479.32 305.21 467.51 310.5 467.51 310.5 487.33 305.21 498.45 301.42 498.45 301.42 487.33 301.42 483.68 302.44 479.32"/><polygon class="cls-6" points="310.5 467.44 310.5 467.51 305.21 467.51 305.21 467.44 305.21 453.62 310.5 453.62 310.5 467.44"/><path class="cls-7" d="M302.44,479.32l-1,4.35v3.66H287.87v-7.94c.7-3.14,3.64-8.44,6.68-8.55C297.94,470.74,301.94,475.7,302.44,479.32Z"/><rect class="cls-4" x="292.77" y="498.45" width="7.93" height="23.69"/><path class="cls-4" d="M286.5,467.51h18.71l-2.77,11.81c-.5-3.62-4.5-8.58-7.89-8.48-3,.11-6,5.41-6.68,8.55v7.94H286.5Z"/><polygon class="cls-6" points="287.87 487.33 301.42 487.33 301.42 498.45 300.7 498.45 292.77 498.45 281.21 498.45 286.5 487.33 287.87 487.33"/><polygon class="cls-6" points="286.5 467.44 286.5 467.51 281.21 467.51 281.21 467.44 281.21 453.62 286.5 453.62 286.5 467.44"/><polygon class="cls-5" points="278.42 479.39 281.21 467.51 286.5 467.51 286.5 487.33 281.21 498.45 277.42 498.45 277.42 487.33 277.42 483.68 278.42 479.39"/><path class="cls-7" d="M278.42,479.39l-1,4.28v3.66H263.84v-7.94c.7-3.14,3.64-8.44,6.67-8.55C273.93,470.74,277.94,475.76,278.42,479.39Z"/><polygon class="cls-6" points="277.42 498.45 281.21 498.45 292.77 498.45 292.77 522.13 275.74 522.13 275.74 498.45 277.42 498.45"/><rect class="cls-4" x="267.81" y="498.45" width="7.93" height="23.69"/><path class="cls-6" d="M261.67,467.51h19.54l-2.79,11.88c-.48-3.63-4.49-8.65-7.91-8.55-3,.11-6,5.41-6.67,8.55v7.94h-2.17Z"/><polygon class="cls-5" points="261.67 467.51 261.67 487.33 256.38 498.45 252.96 498.45 252.59 498.45 252.59 487.33 252.59 483.68 253.59 479.4 256.38 467.51 261.67 467.51"/><polygon class="cls-6" points="261.67 467.44 261.67 467.51 256.38 467.51 256.38 467.44 256.38 453.62 261.67 453.62 261.67 467.44"/><polygon class="cls-6" points="256.38 498.45 267.81 498.45 267.81 522.13 252.96 522.13 252.96 498.46 252.96 498.45 256.38 498.45"/><path class="cls-7" d="M253.59,479.4l-1,4.27v3.66H238.93v-7.94c.71-3.14,3.66-8.44,6.69-8.55,3.42-.1,7.43,4.92,7.91,8.55Z"/><rect class="cls-4" x="245.03" y="498.46" width="7.93" height="23.68"/><polygon class="cls-6" points="238.93 487.33 252.59 487.33 252.59 498.45 227.99 498.45 225.5 498.45 230.79 487.33 238.93 487.33"/><path class="cls-4" d="M253.53,479.39c-.48-3.63-4.49-8.65-7.91-8.55-3,.11-6,5.41-6.69,8.55v7.94h-8.14V467.51h25.59l-2.79,11.89Z"/><polygon class="cls-6" points="245.03 498.46 245.03 522.13 227.99 522.13 227.99 498.46 227.99 498.45 252.59 498.45 252.96 498.45 252.96 498.46 245.03 498.46"/><polygon class="cls-5" points="222.83 478.93 225.5 467.51 230.79 467.51 230.79 487.33 225.5 498.45 221.71 498.45 221.71 487.33 221.71 483.68 222.83 478.93"/><polygon class="cls-6" points="230.79 467.44 230.79 467.51 225.5 467.51 225.5 467.44 225.5 453.62 230.79 453.62 230.79 467.44"/><rect class="cls-4" x="220.07" y="498.46" width="7.93" height="23.68"/><path class="cls-7" d="M222.83,478.92l-1.12,4.75v3.66H208.25V479c.7-3.14,3.65-8.45,6.68-8.55C218.33,470.37,222.29,475.31,222.83,478.92Z"/><polygon class="cls-6" points="225.5 498.45 227.99 498.45 227.99 498.46 220.06 498.46 220.06 522.13 201.69 522.13 201.69 498.45 221.71 498.45 225.5 498.45"/><path class="cls-6" d="M206.79,467.51h18.72l-2.68,11.41c-.54-3.61-4.5-8.55-7.9-8.45-3,.1-6,5.41-6.68,8.55v8.31h-1.46Z"/><polygon class="cls-4" points="206.79 467.51 206.79 487.33 201.51 498.45 197.71 498.45 197.71 487.33 197.71 483.68 198.81 479.02 201.51 467.51 206.79 467.51"/><polygon class="cls-6" points="206.79 467.44 206.79 467.51 201.51 467.51 201.51 467.44 201.51 453.62 206.79 453.62 206.79 467.44"/><polygon class="cls-4" points="201.69 498.45 201.69 522.13 193.75 522.13 193.75 498.45 197.71 498.45 201.51 498.45 201.69 498.45"/><path class="cls-7" d="M198.81,479l-1.1,4.65v3.66h-13.5V479c.7-3.14,3.66-8.45,6.69-8.55C194.32,470.37,198.33,475.39,198.81,479Z"/><polygon class="cls-6" points="197.71 487.33 197.71 498.45 193.75 498.45 176.72 498.45 176.68 498.45 181.96 487.33 184.21 487.33 197.71 487.33"/><rect class="cls-6" x="176.72" y="498.45" width="17.02" height="23.69"/><polygon class="cls-4" points="181.96 467.51 181.96 487.33 176.68 498.45 172.88 498.45 172.88 487.33 172.88 483.68 176.68 467.51 181.96 467.51"/><rect class="cls-6" x="176.68" y="453.68" width="5.29" height="13.83"/><polygon class="cls-4" points="181.96 395.22 181.96 445.59 170.51 445.59 168.22 441.98 168.22 395.22 174.45 395.22 181.96 395.22"/><polygon class="cls-4" points="176.72 498.45 176.72 522.13 168.78 522.13 168.78 498.45 172.88 498.45 176.68 498.45 176.72 498.45"/><path class="cls-6" d="M176.68,467.51l-3.8,16.16c-.64-4.52-5.61-12.68-9.3-12.13-2.8.42-6.7,5-7.39,8.15V467.51Z"/><polygon class="cls-4" points="170.58 346.04 174.45 395.22 168.22 395.22 164.32 353.2 158.44 353.2 158.44 351.06 155.46 351.06 155.46 353.2 145.41 353.2 145.41 351.06 141.95 351.06 141.95 395.22 136.64 395.22 132.06 395.22 136.43 346.04 138.73 346.04 167.31 346.04 170.58 346.04"/><polygon class="cls-5" points="172.88 487.33 172.88 498.45 168.78 498.45 151.7 498.45 156.19 487.33 172.88 487.33"/><path class="cls-7" d="M172.88,483.67v3.66H156.19v-7.64c.69-3.17,4.59-7.73,7.39-8.15C167.27,471,172.24,479.15,172.88,483.67Z"/><polygon class="cls-5" points="170.51 445.59 181.96 445.59 324.06 445.59 321.33 465.21 321.32 465.21 321.32 467.51 310.5 467.51 310.5 467.44 310.5 453.62 305.21 453.62 305.21 467.44 305.21 467.51 286.5 467.51 286.5 467.44 286.5 453.62 281.21 453.62 281.21 467.44 281.21 467.51 261.67 467.51 261.67 467.44 261.67 453.62 256.38 453.62 256.38 467.44 256.38 467.51 230.79 467.51 230.79 467.44 230.79 453.62 225.5 453.62 225.5 467.44 225.5 467.51 206.79 467.51 206.79 467.44 206.79 453.62 201.51 453.62 201.51 467.44 201.51 467.51 181.96 467.51 181.96 453.68 176.68 453.68 176.68 467.51 156.19 467.51 156.19 445.59 167.46 445.59 170.51 445.59"/><rect class="cls-6" x="151.7" y="498.45" width="17.08" height="23.69"/><polygon class="cls-7" points="164.32 353.2 168.22 395.22 158.44 395.22 158.44 353.2 164.32 353.2"/><polygon class="cls-6" points="162.36 439.46 167.46 445.59 156.19 445.59 162.36 439.46"/><polygon class="cls-6" points="167.31 323.42 167.31 346.04 138.73 346.04 138.73 323.42 141.82 323.42 162.97 323.42 167.31 323.42"/><polygon class="cls-4" points="156.63 287.86 162.97 323.42 141.82 323.42 147.59 287.86 149.46 287.86 154.17 287.86 156.63 287.86"/><polygon class="cls-6" points="158.44 353.2 158.44 395.22 155.46 395.22 155.46 353.2 155.46 351.06 158.44 351.06 158.44 353.2"/><polygon class="cls-4" points="168.22 441.98 170.51 445.59 167.46 445.59 162.36 439.46 156.19 445.59 156.19 467.51 156.19 479.69 156.19 487.33 151.7 498.45 151.7 445.59 159.72 436.44 164.74 436.44 168.22 441.98"/><rect class="cls-7" x="145.41" y="353.2" width="10.06" height="42.02"/><polygon class="cls-4" points="150.94 247.06 154.17 287.86 149.46 287.86 150.94 247.06"/><path class="cls-7" d="M159.89,411.66a4,4,0,0,1-.19,1.2v14.63h-7.49V412.82a4.07,4.07,0,0,1-.17-1.16,3.93,3.93,0,0,1,7.85,0Z"/><path class="cls-5" d="M152.21,412.82v14.67h7.49V412.86a4,4,0,0,0,.19-1.2,3.93,3.93,0,0,0-7.85,0A4.07,4.07,0,0,0,152.21,412.82Zm-3.47-1.16a3.93,3.93,0,0,0-7.85,0,3.28,3.28,0,0,0,.06.63v15.2h7.73v-15.2A2.64,2.64,0,0,0,148.74,411.66Zm19.48-16.44V442l-3.48-5.54h-5l-8,9.15H136.64V395.22h31.58Z"/><path class="cls-5" d="M151.7,498.45v23.69H136.64V445.59H151.7Z"/><path class="cls-7" d="M141,412.29a3.28,3.28,0,0,1-.06-.63,3.93,3.93,0,0,1,7.85,0,2.64,2.64,0,0,1-.06.63v15.2H141Z"/><polygon class="cls-6" points="145.41 353.2 145.41 395.22 141.95 395.22 141.95 351.06 145.41 351.06 145.41 353.2"/><path class="cls-7" d="M136.64,445.59v76.55H126.25V445.59Z"/><polygon class="cls-7" points="136.64 395.22 136.64 445.59 126.25 445.59 126.25 395.22 132.06 395.22 136.64 395.22"/><rect class="cls-7" x="149.47" y="304.22" width="6" height="19.19"/><rect class="cls-7" x="361.68" y="519.17" width="39.47" height="25.01"/><rect class="cls-7" x="108.83" y="512.19" width="44.44" height="31.99"/><rect class="cls-7" x="102.18" y="457.84" width="30.18" height="46.87"/><rect class="cls-7" x="39.55" y="460.52" width="23.15" height="23.15"/><rect class="cls-7" x="73.69" y="457.84" width="11.99" height="16.48"/><rect class="cls-7" x="10.95" y="452.69" width="16.61" height="11.89"/><rect class="cls-7" x="464.88" y="445.2" width="11.53" height="33.54"/><rect class="cls-7" x="549.77" y="470.39" width="22.6" height="18.86"/><rect class="cls-7" x="509.17" y="479.35" width="23.53" height="19.84"/><rect class="cls-7" x="464.88" y="486.13" width="28.14" height="20.62"/><rect class="cls-7" x="278.44" y="519.17" width="28.35" height="20.76"/><rect class="cls-7" x="746.53" y="451.57" width="34.54" height="44.88"/><rect class="cls-7" x="683.88" y="452.69" width="20.88" height="38.43"/><rect class="cls-7" x="657.37" y="476.19" width="17.45" height="17.45"/><rect class="cls-7" x="588.29" y="493.64" width="34.55" height="34.55"/><rect class="cls-7" x="1127.54" y="479.67" width="40.78" height="21.59"/><rect class="cls-7" x="1076.57" y="484.1" width="19.79" height="24.95"/><rect class="cls-7" x="1104.75" y="474.27" width="7.8" height="11.86"/><rect class="cls-7" x="980.89" y="488.8" width="19.79" height="11.74"/><rect class="cls-7" x="1090.96" y="499.16" width="17.69" height="17.69"/><rect class="cls-7" x="1044.78" y="499.16" width="29.39" height="21.89"/><rect class="cls-7" x="1000.38" y="512.65" width="19.22" height="22.79"/><rect class="cls-7" x="939.36" y="524.05" width="23.99" height="23.99"/><rect class="cls-7" x="864.12" y="530.64" width="31.59" height="17.39"/><rect class="cls-7" x="638.79" y="548.04" width="189.51" height="28.79"/><rect class="cls-7" x="721.54" y="521.05" width="26.99" height="26.99"/><rect class="cls-7" x="674.82" y="500.21" width="20.98" height="15.21"/><rect class="cls-7" x="717.9" y="484.1" width="16.11" height="16.11"/><rect class="cls-7" x="638.79" y="494.66" width="11.86" height="11.86"/><rect class="cls-7" x="436.05" y="526.33" width="63.43" height="34.16"/><rect class="cls-7" x="206.28" y="530.02" width="17.87" height="17.87"/><rect class="cls-7" x="1.16" y="512.19" width="22.89" height="68.91"/><rect class="cls-7" x="44.19" y="512.19" width="50.13" height="35.7"/><rect class="cls-7" x="10.77" y="488.25" width="32.32" height="17.94"/><rect class="cls-7" x="915.82" y="576.82" width="33.67" height="18.38"/><rect class="cls-7" x="877.33" y="587.8" width="29.6" height="14.43"/><rect class="cls-7" x="826.64" y="596.68" width="40.7" height="30.34"/><rect class="cls-7" x="1030.89" y="552.65" width="51.43" height="22.2"/><rect class="cls-7" x="971.69" y="555.98" width="47.91" height="22.57"/><rect class="cls-7" x="942.03" y="560.05" width="23.99" height="11.84"/><rect class="cls-6" x="85.68" y="533.6" width="28.26" height="18.43"/><rect class="cls-6" x="33.32" y="500.89" width="24.88" height="21.25"/><rect class="cls-6" x="58.2" y="472.09" width="21.49" height="19.03"/><rect class="cls-6" x="99.81" y="496.08" width="14.13" height="10.68"/><rect class="cls-6" x="0.1" y="568.81" width="61.23" height="59.16"/><rect class="cls-6" x="220.1" y="540.19" width="22.95" height="15.47"/><rect class="cls-6" x="180.89" y="540.19" width="26.77" height="17.35"/><rect class="cls-6" x="145.84" y="539.93" width="20.81" height="15.74"/><rect class="cls-6" x="113.94" y="573.19" width="30.33" height="20.97"/><rect class="cls-6" x="201.4" y="562.43" width="26.86" height="14.39"/><rect class="cls-6" x="237.42" y="546.65" width="25.82" height="13.84"/><rect class="cls-6" x="298.6" y="531.6" width="15.04" height="15.04"/><rect class="cls-6" x="416.93" y="542.81" width="38.36" height="26"/><rect class="cls-6" x="488.17" y="552.02" width="21" height="13.5"/><rect class="cls-6" x="721.54" y="571.89" width="90.02" height="30.34"/><rect class="cls-6" x="846.99" y="622.38" width="25.11" height="14.39"/><rect class="cls-6" x="836.84" y="640.87" width="48.13" height="40.42"/><rect class="cls-6" x="910.63" y="656.63" width="45.92" height="20.55"/><rect class="cls-6" x="950.54" y="640.87" width="43.2" height="20.21"/><rect class="cls-6" x="884.98" y="640.87" width="47.68" height="20.21"/><rect class="cls-6" x="1000.38" y="703.09" width="104.37" height="56.29"/><rect class="cls-6" x="1000.38" y="686.08" width="34.28" height="26.72"/><rect class="cls-6" x="949.49" y="699.44" width="30.45" height="48.98"/><rect class="cls-6" x="1112.55" y="577.85" width="29.81" height="24.38"/><rect class="cls-6" x="1151.26" y="563.75" width="41.1" height="32.93"/><rect class="cls-6" x="1257.44" y="565.97" width="34.25" height="11.88"/><rect class="cls-6" x="1220.45" y="596.68" width="33.57" height="20.9"/><rect class="cls-6" x="619.01" y="688.82" width="85.75" height="66.45"/><rect class="cls-6" x="549.77" y="658.74" width="65.19" height="65.19"/><rect class="cls-6" x="527.21" y="607.31" width="29.46" height="43.67"/><rect class="cls-6" x="455.29" y="611.85" width="56.17" height="39.13"/><rect class="cls-6" x="297.16" y="697.73" width="52.63" height="45.9"/><rect class="cls-6" x="228.27" y="620.32" width="46.36" height="21.92"/><rect class="cls-6" x="286.8" y="594.16" width="40.39" height="17.69"/><rect class="cls-6" x="349.8" y="539.13" width="40.42" height="29.68"/><rect class="cls-6" x="36.9" y="538.95" width="24.42" height="16.71"/><rect class="cls-6" x="102.18" y="586.43" width="20.52" height="20.52"/><rect class="cls-6" x="174.28" y="571.25" width="33.39" height="25.44"/><rect class="cls-7" x="154.52" y="620.32" width="53.15" height="21.92"/><rect class="cls-7" x="536.39" y="688.82" width="35.11" height="35.11"/><rect class="cls-7" x="442.34" y="627.02" width="29.61" height="29.61"/><rect class="cls-7" x="282.26" y="723.93" width="28.28" height="23.66"/><rect class="cls-7" x="224.15" y="635.09" width="22.24" height="15.89"/><rect class="cls-6" x="483.37" y="505.13" width="5.79" height="5.79"/><rect class="cls-6" x="502.24" y="496.44" width="9.22" height="8.68"/><rect class="cls-6" x="529.36" y="499.44" width="7.61" height="5.69"/><rect class="cls-6" x="526.32" y="510.92" width="10.65" height="4.51"/><rect class="cls-6" x="512.88" y="514.46" width="8.05" height="8.05"/><rect class="cls-6" x="528.09" y="522.51" width="8.87" height="5.68"/><rect class="cls-6" x="512.88" y="533.92" width="16.48" height="3.3"/><rect class="cls-6" x="536.97" y="533.92" width="19.7" height="7.1"/><rect class="cls-6" x="561.07" y="513.17" width="14.94" height="1.29"/><rect class="cls-6" x="558.77" y="499.19" width="13.6" height="7.34"/><rect class="cls-6" x="625.44" y="521.05" width="10.14" height="7.14"/><rect class="cls-6" x="657.37" y="518.48" width="23.09" height="6.14"/><rect class="cls-6" x="668.91" y="504" width="11.54" height="5.83"/><rect class="cls-6" x="710.88" y="494.66" width="12.17" height="6.12"/><rect class="cls-6" x="751.69" y="491.12" width="22.06" height="6.6"/><rect class="cls-6" x="769.44" y="470.39" width="21.8" height="17.14"/><rect class="cls-6" x="729.89" y="496.44" width="6.34" height="10.08"/><rect class="cls-6" x="699.72" y="487.52" width="8.11" height="6.12"/><rect class="cls-6" x="710.88" y="438.85" width="12.17" height="29.91"/><rect class="cls-6" x="609.98" y="474" width="7.61" height="10.1"/><rect class="cls-6" x="1408.15" y="559.49" width="29.09" height="18.75"/><rect class="cls-6" x="1507.06" y="587.94" width="48.48" height="32.97"/><rect class="cls-6" x="1703.93" y="656.63" width="92.54" height="46.47"/><rect class="cls-6" x="1634.98" y="629.57" width="32.66" height="21.41"/><rect class="cls-6" x="1767.44" y="604.42" width="52.62" height="25.15"/><rect class="cls-6" x="1829.13" y="650.98" width="26.2" height="26.2"/><rect class="cls-6" x="1854.25" y="699.44" width="31.8" height="31.8"/><rect class="cls-6" x="1886.05" y="604.42" width="19.3" height="46.56"/><rect class="cls-7" x="1855.34" y="560.05" width="20.17" height="20.17"/><rect class="cls-7" x="1694.86" y="548.04" width="32.18" height="32.18"/><rect class="cls-7" x="1750.2" y="546.55" width="20.71" height="20.71"/><rect class="cls-7" x="1582.24" y="586.01" width="10.67" height="10.67"/><rect class="cls-7" x="1667.64" y="590.04" width="43.31" height="17.09"/><rect class="cls-7" x="1755.9" y="617" width="23.22" height="12.57"/><rect class="cls-7" x="1895.7" y="530.52" width="25.47" height="9.4"/><circle class="cls-8" cx="1494.54" cy="745.15" r="21.22"/><ellipse class="cls-8" cx="1510.36" cy="809.44" rx="20.94" ry="11.77"/><ellipse class="cls-8" cx="1470.12" cy="680.26" rx="24.42" ry="19.18"/><ellipse class="cls-8" cx="1422.29" cy="651.95" rx="23.4" ry="28.31"/><ellipse class="cls-8" cx="1369.22" cy="623.28" rx="29.67" ry="6.29"/><ellipse class="cls-8" cx="1467.56" cy="805.11" rx="21.86" ry="32.23"/><ellipse class="cls-8" cx="1378.45" cy="887.79" rx="29.7" ry="5.71"/><ellipse class="cls-8" cx="1264.29" cy="1010.99" rx="10.28" ry="40.55"/><ellipse class="cls-8" cx="1378.45" cy="1003.19" rx="29.7" ry="7.8"/><circle class="cls-8" cx="1434.2" cy="944.51" r="11.5"/><circle class="cls-8" cx="1426.97" cy="809.27" r="28.07"/><circle class="cls-8" cx="1476.82" cy="927.75" r="25.94"/><circle class="cls-8" cx="1290.3" cy="960.24" r="15.74"/><circle class="cls-8" cx="1043.16" cy="937.16" r="9.41"/><circle class="cls-8" cx="1094.26" cy="1018.79" r="7.8"/><circle class="cls-8" cx="1139.93" cy="924.69" r="12.48"/><circle class="cls-8" cx="1305.94" cy="828.58" r="23.47"/><circle class="cls-8" cx="1444.06" cy="738.05" r="6.82"/><circle class="cls-8" cx="1592.81" cy="710.53" r="19.2"/><circle class="cls-8" cx="1678.47" cy="773.66" r="10.83"/><circle class="cls-8" cx="1785.97" cy="828.06" r="6.85"/><circle class="cls-8" cx="1758.55" cy="946.31" r="13.94"/><circle class="cls-8" cx="778.9" cy="762.7" r="15.1"/><circle class="cls-8" cx="516.83" cy="717.6" r="18.16"/><circle class="cls-8" cx="626.28" cy="568.48" r="12.5"/><circle class="cls-8" cx="307" cy="614.36" r="20.19"/><circle class="cls-8" cx="1074.46" cy="644.27" r="21.9"/></g></svg>
