<svg id="Layer_4" data-name="Layer 4" xmlns="http://www.w3.org/2000/svg" viewBox="0 0 852.21 256.14"><defs><style>.cls-1{fill:#d1d1d1;}.cls-2{fill:#a3a3a3;}.cls-3{fill:#e8e8e8;}.cls-4{fill:#919191;}.cls-5{fill:#efef00;}.cls-6{fill:#d8d800;}</style></defs><path class="cls-1" d="M556.67,195.73H756.88c-21.33,6-42.82,6.52-65.47,6.33L559.28,203h-2.61Z"/><path class="cls-2" d="M746.26,157.87a111.72,111.72,0,0,1-30.13,0c-17.89-2.46-22.62-7.64-25.22-10.19-.23-.23-5.64-5.59-4.33-7.21.57-.7,1.77-.55,4.11-.57l5,.07h20.38c2.87,1.29,5.07,2.39,6.31,3.07C730.32,147.39,738.62,152.66,746.26,157.87Z"/><path class="cls-2" d="M665.57,146.37v23.49a2.41,2.41,0,0,1-2.41,2.42H650.68a2.41,2.41,0,0,1-2.41-2.42V146.37a2.41,2.41,0,0,1,2.41-2.41h12.48A2.41,2.41,0,0,1,665.57,146.37Z"/><path class="cls-2" d="M618.34,144c2.86,0,5.17,3.92,5.17,8.76s-2.31,8.77-5.17,8.77-5.18-3.92-5.18-8.77S615.48,144,618.34,144Z"/><path class="cls-2" d="M589.06,144c2.86,0,5.18,3.92,5.18,8.76s-2.32,8.77-5.18,8.77-5.18-3.92-5.18-8.77S586.2,144,589.06,144Z"/><path class="cls-2" d="M559.78,144c2.86,0,5.18,3.92,5.18,8.76s-2.32,8.77-5.18,8.77-5.18-3.92-5.18-8.77S556.92,144,559.78,144Z"/><path class="cls-2" d="M556.67,203v23.36a2.66,2.66,0,0,1-2.81,2.66l-4.4-.24h0V189.53l4.39-.27a2.65,2.65,0,0,1,2.82,2.65v11Z"/><path class="cls-3" d="M549.46,228.72h0l-51.67-2.85V192.76l40.69-2.55,5.44-.34,5.54-.34Z"/><path class="cls-2" d="M530.5,144c2.86,0,5.18,3.92,5.18,8.76s-2.32,8.77-5.18,8.77-5.18-3.92-5.18-8.77S527.64,144,530.5,144Z"/><path class="cls-2" d="M501.22,144c2.86,0,5.18,3.92,5.18,8.76s-2.32,8.77-5.18,8.77-5.17-3.92-5.17-8.77S498.36,144,501.22,144Z"/><polygon class="cls-2" points="497.79 196.87 497.79 223.63 484.59 220.32 484.59 217.85 484.59 201.44 484.59 199.64 497.79 196.87"/><polygon class="cls-4" points="484.59 201.44 484.59 217.85 480.28 215.35 480.28 202.95 484.59 201.44"/><path class="cls-2" d="M472,144c2.86,0,5.17,3.92,5.17,8.76s-2.31,8.77-5.17,8.77-5.18-3.92-5.18-8.77S469.09,144,472,144Z"/><path class="cls-2" d="M442.67,144c2.86,0,5.18,3.92,5.18,8.76s-2.32,8.77-5.18,8.77-5.18-3.92-5.18-8.77S439.81,144,442.67,144Z"/><path class="cls-1" d="M418.81,195.73l7.06,7.22H317.46c-27.9.3-52.63-4.11-72.45-7.22Z"/><path class="cls-2" d="M418.57,152.72c0,4.85-2.32,8.77-5.18,8.77h0l-2.27-.89c-1.72-1.42-2.9-4.41-2.9-7.88,0-4.84,2.32-8.76,5.18-8.76S418.57,147.88,418.57,152.72Z"/><path class="cls-5" d="M413.39,161.49a322.13,322.13,0,0,0,107.79,22c5.53.15,10.94.14,16.25,0l1.05,6.74-40.69,2.55v4.11l-13.2,2.77v1.8L480.28,203H425.87l-7.06-7.22-33.32-34.1-.22-.37L379.05,151,368.59,133.6l-6.87-11.4h6.4l11.5,11.25L404.7,158q3.17,1.32,6.41,2.59l2.27.89Z"/><polygon class="cls-6" points="401.49 122.2 411.99 133.04 401.71 133.17 395.09 122.2 401.49 122.2"/><path class="cls-3" d="M408.21,152.72c0,3.47,1.18,6.46,2.9,7.88q-3.24-1.28-6.41-2.59l-25.08-24.56H380l21.72-.28L412,133h0l263.88-3.37c14.24-.08,30.8,6.1,40.17,10.3H695.67l-5-.07c-2.34,0-3.54-.13-4.11.57-1.31,1.62,4.1,7,4.33,7.21,2.6,2.55,7.33,7.73,25.22,10.19a111.72,111.72,0,0,0,30.13,0h0c16.65,11.37,30.17,22.49,30.3,23.24,1.46,8.24-12.24,12.42-17.65,14l-2,.59H556.67v-3.82a2.65,2.65,0,0,0-2.82-2.65l-4.39.27-5.54.34-5.44.34-1.05-6.74c-5.31.14-10.72.15-16.25,0a322.13,322.13,0,0,1-107.79-22c2.86,0,5.18-3.92,5.18-8.77s-2.32-8.76-5.18-8.76S408.21,147.88,408.21,152.72Zm257.36,17.14V146.37a2.41,2.41,0,0,0-2.41-2.41H650.68a2.41,2.41,0,0,0-2.41,2.41v23.49a2.41,2.41,0,0,0,2.41,2.42h12.48A2.41,2.41,0,0,0,665.57,169.86Zm-42.06-17.14c0-4.84-2.31-8.76-5.17-8.76s-5.18,3.92-5.18,8.76,2.32,8.77,5.18,8.77S623.51,157.57,623.51,152.72Zm-29.27,0c0-4.84-2.32-8.76-5.18-8.76s-5.18,3.92-5.18,8.76,2.32,8.77,5.18,8.77S594.24,157.57,594.24,152.72Zm-29.28,0c0-4.84-2.32-8.76-5.18-8.76s-5.18,3.92-5.18,8.76,2.32,8.77,5.18,8.77S565,157.57,565,152.72Zm-29.28,0c0-4.84-2.32-8.76-5.18-8.76s-5.18,3.92-5.18,8.76,2.32,8.77,5.18,8.77S535.68,157.57,535.68,152.72Zm-29.28,0c0-4.84-2.32-8.76-5.18-8.76s-5.17,3.92-5.17,8.76,2.31,8.77,5.17,8.77S506.4,157.57,506.4,152.72Zm-29.28,0c0-4.84-2.31-8.76-5.17-8.76s-5.18,3.92-5.18,8.76,2.32,8.77,5.18,8.77S477.12,157.57,477.12,152.72Zm-29.27,0c0-4.84-2.32-8.76-5.18-8.76s-5.18,3.92-5.18,8.76,2.32,8.77,5.18,8.77S447.85,157.57,447.85,152.72Z"/><path class="cls-3" d="M385.49,161.63l33.32,34.1H245s-60-9-146.88-35.31c-5-1.5-13.83-6.29-13.41-10.57.37-3.68,6.18-5.49,13.88-6.79L114.16,155h71l-50-15.54c11.33-.61,26.12-1.2,48.1-2.08l82.07-1.67L367,133.62l1.63,0L379.05,151a14.5,14.5,0,0,0-.11,1.77c0,4.85,2.31,8.77,5.17,8.77a3.08,3.08,0,0,0,1.16-.23ZM360,152.72c0-4.84-2.32-8.76-5.18-8.76s-5.17,3.92-5.17,8.76,2.31,8.77,5.17,8.77S360,157.57,360,152.72Zm-29.28,0c0-4.84-2.31-8.76-5.17-8.76s-5.18,3.92-5.18,8.76,2.32,8.77,5.18,8.77S330.73,157.57,330.73,152.72Zm-29.27,0c0-4.84-2.32-8.76-5.18-8.76s-5.18,3.92-5.18,8.76,2.32,8.77,5.18,8.77S301.46,157.57,301.46,152.72Z"/><path class="cls-2" d="M379.05,151l6.22,10.31a3.08,3.08,0,0,1-1.16.23c-2.86,0-5.17-3.92-5.17-8.77A14.5,14.5,0,0,1,379.05,151Z"/><path class="cls-2" d="M354.83,144c2.86,0,5.18,3.92,5.18,8.76s-2.32,8.77-5.18,8.77-5.17-3.92-5.17-8.77S352,144,354.83,144Z"/><path class="cls-2" d="M325.56,144c2.86,0,5.17,3.92,5.17,8.76s-2.31,8.77-5.17,8.77-5.18-3.92-5.18-8.77S322.7,144,325.56,144Z"/><path class="cls-2" d="M296.28,144c2.86,0,5.18,3.92,5.18,8.76s-2.32,8.77-5.18,8.77-5.18-3.92-5.18-8.77S293.42,144,296.28,144Z"/><path class="cls-5" d="M265.38,135.69l-82.07,1.67c-22,.88-36.77,1.47-48.1,2.08l-12.06-3.75L94.21,21.3h28.3l82.51,90Z"/><polygon class="cls-6" points="185.18 154.98 114.16 154.98 98.6 143.06 81.13 129.67 103.8 129.67 123.15 135.69 135.21 139.44 185.18 154.98"/></svg>
