<svg id="Layer_4" data-name="Layer 4" xmlns="http://www.w3.org/2000/svg" viewBox="0 0 852.21 256.14"><defs><style>.cls-1{fill:#e8e8e8;}.cls-2{fill:#d1d1d1;}.cls-3{fill:#a3a3a3;}.cls-4{fill:#ce0217;}.cls-5{fill:#919191;}.cls-6{fill:#ba041f;}</style></defs><path class="cls-1" d="M772.6,184.05c1.46,8.24-12.24,12.42-17.65,14l-2.05.59H552.7v-3.83a2.67,2.67,0,0,0-2.83-2.65l-4.38.27-5.54.35-5.44.34-1-6.74c-5.31.14-10.72.15-16.25,0a322.13,322.13,0,0,1-107.79-22c2.86,0,5.18-3.92,5.18-8.77s-2.32-8.76-5.18-8.76-5.18,3.92-5.18,8.76c0,3.47,1.18,6.46,2.9,7.88q-3.24-1.28-6.41-2.59l-25.08-24.56H376l21.72-.28L408,136h0l263.88-3.37c14.23-.08,30.78,6.09,40.15,10.29H691.7l-5-.06c-2.35,0-3.54-.13-4.11.56-1.31,1.63,4.1,7,4.33,7.22,2.6,2.54,7.33,7.73,25.21,10.19a111.81,111.81,0,0,0,30.14,0C759,172.18,772.47,183.3,772.6,184.05Zm-111-11.25V149.31a2.42,2.42,0,0,0-2.42-2.42H646.71a2.42,2.42,0,0,0-2.42,2.42V172.8a2.41,2.41,0,0,0,2.42,2.41h12.47A2.41,2.41,0,0,0,661.6,172.8Zm-42.06-17.14c0-4.84-2.32-8.77-5.18-8.77s-5.17,3.93-5.17,8.77,2.31,8.77,5.17,8.77S619.54,160.5,619.54,155.66Zm-29.28,0c0-4.84-2.31-8.77-5.17-8.77s-5.18,3.93-5.18,8.77,2.32,8.77,5.18,8.77S590.26,160.5,590.26,155.66Zm-29.27,0c0-4.84-2.32-8.77-5.18-8.77s-5.18,3.93-5.18,8.77,2.32,8.77,5.18,8.77S561,160.5,561,155.66Zm-29.28,0c0-4.84-2.32-8.77-5.18-8.77s-5.18,3.93-5.18,8.77,2.32,8.77,5.18,8.77S531.71,160.5,531.71,155.66Zm-29.28,0c0-4.84-2.32-8.77-5.18-8.77s-5.18,3.93-5.18,8.77,2.32,8.77,5.18,8.77S502.43,160.5,502.43,155.66Zm-29.28,0c0-4.84-2.32-8.77-5.18-8.77s-5.17,3.93-5.17,8.77,2.31,8.77,5.17,8.77S473.15,160.5,473.15,155.66Zm-29.28,0c0-4.84-2.31-8.77-5.17-8.77s-5.18,3.93-5.18,8.77,2.32,8.77,5.18,8.77S443.87,160.5,443.87,155.66Z"/><path class="cls-2" d="M552.7,198.67H752.9c-21.33,6-42.82,6.52-65.46,6.33l-132.13.89H552.7Z"/><path class="cls-3" d="M742.29,160.81a111.81,111.81,0,0,1-30.14,0c-17.88-2.46-22.61-7.65-25.21-10.19-.23-.23-5.64-5.59-4.33-7.22.57-.69,1.76-.54,4.11-.56l5,.06h20.37c2.88,1.29,5.07,2.4,6.32,3.08C726.35,150.33,734.65,155.6,742.29,160.81Z"/><path class="cls-3" d="M661.6,149.31V172.8a2.41,2.41,0,0,1-2.42,2.41H646.71a2.41,2.41,0,0,1-2.42-2.41V149.31a2.42,2.42,0,0,1,2.42-2.42h12.47A2.42,2.42,0,0,1,661.6,149.31Z"/><path class="cls-3" d="M614.36,146.89c2.86,0,5.18,3.93,5.18,8.77s-2.32,8.77-5.18,8.77-5.17-3.93-5.17-8.77S611.5,146.89,614.36,146.89Z"/><path class="cls-3" d="M585.09,146.89c2.86,0,5.17,3.93,5.17,8.77s-2.31,8.77-5.17,8.77-5.18-3.93-5.18-8.77S582.23,146.89,585.09,146.89Z"/><ellipse class="cls-3" cx="555.81" cy="155.66" rx="5.18" ry="8.77"/><path class="cls-3" d="M552.7,205.89v23.36a2.66,2.66,0,0,1-2.81,2.65l-4.4-.24V192.47h0l4.38-.27a2.67,2.67,0,0,1,2.83,2.65v11Z"/><path class="cls-1" d="M545.49,192.47v39.19l-51.67-2.84V195.7l40.69-2.55,5.44-.34,5.54-.35Z"/><path class="cls-4" d="M533.46,186.41l1,6.74-40.69,2.55v4.11l-13.2,2.77v1.8l-4.31,1.51H421.9l-7.06-7.22-33.32-34.1-.22-.37-6.22-10.31-10.46-17.35-6.87-11.4h6.4l11.5,11.25L400.73,161q3.16,1.32,6.41,2.59l2.27.89h0a322.13,322.13,0,0,0,107.79,22C522.74,186.56,528.15,186.55,533.46,186.41Z"/><ellipse class="cls-3" cx="526.53" cy="155.66" rx="5.18" ry="8.77"/><ellipse class="cls-3" cx="497.25" cy="155.66" rx="5.18" ry="8.77"/><polygon class="cls-3" points="493.82 199.81 493.82 226.57 480.62 223.26 480.62 220.79 480.62 204.38 480.62 202.58 493.82 199.81"/><polygon class="cls-5" points="480.62 204.38 480.62 220.79 476.31 218.29 476.31 205.89 480.62 204.38"/><path class="cls-3" d="M468,146.89c2.86,0,5.18,3.93,5.18,8.77s-2.32,8.77-5.18,8.77-5.17-3.93-5.17-8.77S465.11,146.89,468,146.89Z"/><path class="cls-3" d="M438.7,146.89c2.86,0,5.17,3.93,5.17,8.77s-2.31,8.77-5.17,8.77-5.18-3.93-5.18-8.77S435.84,146.89,438.7,146.89Z"/><path class="cls-2" d="M414.84,198.67l7.06,7.22H313.49c-27.9.3-52.63-4.11-72.45-7.22Z"/><path class="cls-1" d="M381.52,164.57l33.32,34.1H241s-60-9-146.88-35.31c-5-1.5-13.83-6.29-13.41-10.57.37-3.68,6.18-5.49,13.88-6.79l15.56,11.92h71l-50-15.54c11.33-.61,26.12-1.2,48.1-2.08l82.06-1.67h0L363,136.56l1.63,0,10.46,17.35a14.5,14.5,0,0,0-.11,1.77c0,4.85,2.31,8.77,5.17,8.77a3.08,3.08,0,0,0,1.16-.23ZM356,155.66c0-4.84-2.32-8.77-5.18-8.77s-5.18,3.93-5.18,8.77,2.32,8.77,5.18,8.77S356,160.5,356,155.66Zm-29.28,0c0-4.84-2.32-8.77-5.18-8.77s-5.17,3.93-5.17,8.77,2.31,8.77,5.17,8.77S326.76,160.5,326.76,155.66Zm-29.28,0c0-4.84-2.31-8.77-5.17-8.77s-5.18,3.93-5.18,8.77,2.32,8.77,5.18,8.77S297.48,160.5,297.48,155.66Z"/><path class="cls-3" d="M409.42,146.9c2.86,0,5.18,3.92,5.18,8.76s-2.32,8.77-5.18,8.77h0l-2.27-.89c-1.72-1.42-2.9-4.41-2.9-7.88C404.24,150.82,406.56,146.9,409.42,146.9Z"/><polygon class="cls-6" points="397.52 125.14 408.02 135.98 397.74 136.11 391.12 125.14 397.52 125.14"/><path class="cls-3" d="M375.08,153.89l6.22,10.31a3.08,3.08,0,0,1-1.16.23c-2.86,0-5.17-3.92-5.17-8.77A14.5,14.5,0,0,1,375.08,153.89Z"/><ellipse class="cls-3" cx="350.86" cy="155.66" rx="5.18" ry="8.77"/><path class="cls-3" d="M321.58,146.89c2.86,0,5.18,3.93,5.18,8.77s-2.32,8.77-5.18,8.77-5.17-3.93-5.17-8.77S318.72,146.89,321.58,146.89Z"/><path class="cls-3" d="M292.31,146.89c2.86,0,5.17,3.93,5.17,8.77s-2.31,8.77-5.17,8.77-5.18-3.93-5.18-8.77S289.45,146.89,292.31,146.89Z"/><path class="cls-4" d="M261.4,138.62h0l-82.06,1.67c-22,.88-36.77,1.47-48.1,2.08l-12.06-3.75h0L90.24,24.24h28.3l82.51,90Z"/><polygon class="cls-6" points="181.21 157.92 110.19 157.92 94.63 146 77.16 132.61 99.83 132.61 119.17 138.63 119.18 138.63 131.24 142.38 181.21 157.92"/></svg>
