<svg xmlns="http://www.w3.org/2000/svg" viewBox="0 0 1920 1080"><defs><style>.cls-1{fill:#ed370c;}.cls-2{fill:#f75c0c;}.cls-3{fill:#f79d0c;}.cls-4{fill:#e8d700;}</style></defs><g id="Layer_4" data-name="Layer 4"><rect class="cls-1" y="710.58" width="1920" height="369.42"/><rect class="cls-2" y="481.3" width="1920" height="369.42"/><rect class="cls-3" y="350.61" width="1920" height="369.42"/><rect class="cls-4" width="1920" height="554.12"/></g><g id="Layer_1" data-name="Layer 1"><path class="cls-1" d="M292.32,395.53c5,.76,9.33.63,13-.54q6-1.92,6-8.55c-8.5,2.76-20.95.5-27.84-4.85s-11.52-17.4-11.15-26c.55-12.68,5.13-25.87,11.77-36.94,7-11.67,16.74-23.82,28.35-29.43,8.41-4.06,19.88-7.79,29-.6s12.63,19.71,12.9,30.88a80.3,80.3,0,0,1-5.21,28.87c-3.21,8.23-8.72,17.75-15.12,24.2,7.1,12.18,11.6,25.62,14.88,38.83,3.88,15.71,5.61,32.11,6.45,48.72q.7,29.46,1.39,58.91a46.12,46.12,0,0,1-15.53,9,63.85,63.85,0,0,1-21.11,3.59c-11.63.19-25-2.67-32.62-11.64-8.64-10.15-10.08-25.15-10.13-38.45,0-3.91,0-5.87,0-9.78C278.19,445.13,283.88,420.77,292.32,395.53Z"/><path class="cls-1" d="M495.8,354.48q2.79,78.38,5.57,156.75a52.29,52.29,0,0,1-18,15.14c-7.93,4.25-19.44,5.93-28,6-9.06.06-21.43-4-28.52-9.81a39.25,39.25,0,0,1-14-29.55q-2-64-4-127.92-17.15,4.5-34.2,9.3C366.93,363,363.43,349.34,363,335.91a99,99,0,0,1,3.14-28.22c2.38-8.58,5.32-16,9-21.89a1599.71,1599.71,0,0,1,152-56.79c3.14,6.05,5.8,13.86,8.1,23.22a149.21,149.21,0,0,1,3.9,28.92c.53,13.82-.25,29.68-6.38,42.26C528,333,521,338.77,512.19,340.62q-21.92,4.68-43.74,9.7a11.93,11.93,0,0,0-.34,3.34c.09,2.58,1.25,4,3.31,4.48s6.91,0,14.07-1.5C489.61,355.77,491.67,355.33,495.8,354.48Z"/><path class="cls-1" d="M712.58,398.78q13.9,22.79,27.51,45.74c-1.31,21.89-3.88,45-13.33,64.66-6.13,12.78-18.68,22-33,22.47-11.57.38-21-6-28.46-13.06-13.41-12.61-19.36-33.09-24.43-51.44-2.49-9.83-3.74-14.73-6.24-24.48A80,80,0,0,1,618.5,441a10.82,10.82,0,0,0-1,5.57c.15,4.49,4.32,6.88,12.52,7.23q4.92,18,9.77,35.94c.28,8.6.41,12.91.68,21.51-10.24,13.75-27.15,20.39-43.86,20.62-11.75.17-23.36-4-31.53-12.52-9.64-10.08-11.55-22.73-12.89-36.07q-3.95-111.81-7.88-223.61-.37-10.35,11.48-23.55a125.64,125.64,0,0,1,31.49-24.89c12.46-7,25.74-13.45,39.65-16.5,25.82-5.67,53.18-3.93,72.87,16.87,23.4,24.72,29.15,60.69,29.86,92.65.46,20.64-2.1,42.86-10,62.41-5.75,14.23-15,28.55-28.07,37.35q.23,8.39,6.08,8C701.52,411.73,706.5,407.36,712.58,398.78Zm-80.22-51.12c.42.45,1.6.55,3.52.29s3.35-1.71,4.29-4.39,1.31-6.89,1.13-12.66c-.11-3.66-.17-5.49-.29-9.15q-.28-9.15-1.7-12.89c-.94-2.49-2.41-3.57-4.38-3.25s-3.32.87-4,1.66c.12.83.22,2.25.29,4.27Z"/><path class="cls-1" d="M811.3,427.83a19.92,19.92,0,0,0-1.4,7.23c.1,5.35,2.94,9.72,8.53,13.17s12.34,5.56,20.26,6.31c1,15,1.07,31,4.93,45.64-1.82,6.9-7.35,13.83-15.56,20.84-7.23,6.17-19.62,10.61-29.11,10.45-14-.25-27.65-6.62-37.36-16.62-10.74-11.06-16-27.27-16.43-42.52a85.68,85.68,0,0,1,.47-12.41Q758.92,329.44,772.53,199c8-10.3,18.16-19.61,29.26-25.62,11.85-6.4,22.7-10.19,35.92-11.89,15.34-2,33.49,2.35,46.18,12.62,15.77,12.77,24.16,32.64,26.86,52.54q18.81,133.14,36.57,266.41c-10.37,21.7-25.83,37.79-51,38.32-9.61.2-22.38-4.59-29.27-11.48-8.54-8.53-13.22-20.59-14.35-32.65q-1.9-17-3.82-34a31.67,31.67,0,0,0,17.57-6.79q8.45-6.33,8.37-13.08a12.31,12.31,0,0,0-2.06-7.26,38.53,38.53,0,0,1-14,11.82,38,38,0,0,1-15.48,4.27C831,442.57,818.85,437.82,811.3,427.83Zm26.38-278.91c-15.6,2.06-28.65,7.55-42.61,15.88q17.32-49.1,34.76-98.15c7-8,14.46-17,25.92-18.1,9.27-.92,16.87,3.43,22.48,13.17,6,10.42,8.51,22.63,8.65,34.53.12,10.74-1.19,22.12-6.13,31.87-4.24,8.34-12.3,16.65-20,21.79A64.46,64.46,0,0,0,837.68,148.92Zm6.43,196.37a6.09,6.09,0,0,0,4.43-2.17c-1.83-16.63-2.93-34-6.11-49.95-1-5.21-2.95-7.91-5.21-7.76a6.91,6.91,0,0,0-3.68,1.92q3.36,28,6.7,55.92A3.91,3.91,0,0,0,844.11,345.29Z"/><path class="cls-1" d="M1040.74,433.09l-.42,71.64a63.7,63.7,0,0,1-18.62,19c-7.5,5.08-19.45,7.63-28.11,7.65-11.47,0-21-6.44-28.48-13.91-10.36-10.34-13.17-28.11-13.3-42.83q-.49-144.14-1-288.26c.43-28.56,53.16-26.1,70.69-26q46.07,1.31,92,4.93a197.22,197.22,0,0,1,6.26,33.69,245,245,0,0,1,1.73,33c-.58,20.41-1.82,63.25-32,62.37q-26.74-1.14-53.51-1.8-5.9-.13-5.93,8.95c0,.79,0,1.19,0,2a5.66,5.66,0,0,0,.3,2.28q34.16.72,68.27,2.22c5.37,18.19,7.37,36.9,7.18,55.31-.2,19.3-1.62,40.88-10.06,59.19q-37.4-.81-74.8-1.14a10.62,10.62,0,0,0-1.24,5.09c0,3,1.22,4.83,3.72,5.42a38.31,38.31,0,0,0,8.46.92Q1036.63,432.77,1040.74,433.09Z"/><path class="cls-1" d="M1219.85,226.91q-3.22,139.6-6.43,279.21a63.7,63.7,0,0,1-19,18c-7.7,4.89-19.67,7.27-28.38,7.31-9.53,0-22.06-6.39-28-13.65-9-11-12.67-27.52-12.54-41.88l4.23-288a53.87,53.87,0,0,1,19.48-16.77c8.11-4.27,20.46-5.21,29.13-4.07,11.83,1.55,22,8.93,29.11,17.08C1216.6,194.66,1220.6,211.84,1219.85,226.91Z"/><path class="cls-1" d="M1323.58,425.93c.62.27,1.93-.27,2.77-1.06.29-9.24.44-13.86.73-23.1a62.62,62.62,0,0,1,29.47-15.85c12.54-2.91,23.12-3.47,36.31-2.62,6.53,12.67,9.65,26.71,12,40.32,2.63,15.14,6.41,33.77,4,46.71-1,5.43-5.87,12.83-10.9,20a115.94,115.94,0,0,1-18,20c-16.84,13.67-36.43,23.76-58.31,23.77-32.41,0-56.88-20.89-71.94-47.62-22.53-40-25.6-90.57-24.51-135.72,1.07-44.06,6.8-93.7,34.08-130.85,9.21-11.31,19.07-22.22,32.44-26.75s24-5.08,38-2.47c25.17,4.67,47.41,23.62,61.83,45.81,15,23.14,23.33,50.79,21.8,77.88-.9,15.79-2.9,33.16-14.18,45.35-8.64,9.34-22,12.58-34.55,10.83-7.79-1.09-15.7-5.21-23.48-12.7s-13.2-14.92-13.7-20.24c-.88-9.48.73-21.82,1.48-32.71a1.91,1.91,0,0,0-1.06-.42l-1.06-.17a3.49,3.49,0,0,0-3.65,1.6c-.91,1.31-1.87,4.3-2.56,8.72-1.88,12.07-1.77,25-2.15,37.43C1318.09,367.75,1312.44,421,1323.58,425.93Z"/><path class="cls-1" d="M1508.33,535.32a80,80,0,0,1-48.68-16.53c-17.3-13.32-27-33.27-34.26-53.17-10.38-28.37-11.64-60.66-10.57-90.48,1.38-38.08,6.73-83.36,34-113.39,19.18-21.13,44.2-22.26,68.51-13.68,29.35,10.36,53.45,36,68.36,64.21,16.12,30.48,24.56,65.08,23.16,99.43-1.36,33.32-7.76,67-30.52,92.75C1560.65,524.45,1534.74,535,1508.33,535.32Zm11.22-151.79c.36-9.69.79-19.67-.35-29.23-.65-5.43-2.25-8.54-4.63-9.13a4.24,4.24,0,0,0-4.08,1.13c.11,2.6.29,6.09.54,10.43s.14,13.47-.34,27.37c-.2,5.53-.29,8.29-.48,13.82q-.49,14.47-1.18,21c-.45,4.35-.84,8.09-1.13,11.18-.17,1.68-.32,3.38-.48,5.07a5.83,5.83,0,0,0,4,2.64c2.4.31,4.2-2.17,5.21-7.26,1.84-9.29,1.89-19.2,2.33-28.72C1519.17,394.51,1519.3,390.85,1519.55,383.53Z"/><path class="cls-1" d="M1676,437.42c-5-3.6-9.48-5.93-13.37-6.84s-5.87.68-5.93,4.77V436c11.4,3.44,21,11.15,28.11,20.49s11.52,20.66,11.56,32.42a41.71,41.71,0,0,1-12.75,29.9,44.3,44.3,0,0,1-30.95,12.83,39,39,0,0,1-30.35-15.21c-8.27-10.49-12.18-23.9-11.81-37.21a55.48,55.48,0,0,1,6.64-25.85q6.27-11.19,16.26-16.05a216.59,216.59,0,0,1-13.16-45.5c-3.08-16.92-4-34.39-4.06-52l1.39-58.91c4.07-1.66,9.29-2,15.64-.86a60.39,60.39,0,0,1,19.19,7.07c12,6.75,23.59,16.55,30.05,29,6.89,13.34,9.44,29.09,9.13,44.06,0,3.91,0,5.87,0,9.78C1690.61,394.15,1685.5,415.28,1676,437.42Z"/></g></svg>
